<?xml version="1.0" standalone="no"?><svg xmlns="http://www.w3.org/2000/svg" viewBox="0 0 1440 320"><path fill="#d21e6a" fill-opacity="1" d="M0,96L24,85.3C48,75,96,53,144,69.3C192,85,240,139,288,176C336,213,384,235,432,202.7C480,171,528,85,576,80C624,75,672,149,720,181.3C768,213,816,203,864,170.7C912,139,960,85,1008,101.3C1056,117,1104,203,1152,202.7C1200,203,1248,117,1296,74.7C1344,32,1392,32,1416,32L1440,32L1440,320L1416,320C1392,320,1344,320,1296,320C1248,320,1200,320,1152,320C1104,320,1056,320,1008,320C960,320,912,320,864,320C816,320,768,320,720,320C672,320,624,320,576,320C528,320,480,320,432,320C384,320,336,320,288,320C240,320,192,320,144,320C96,320,48,320,24,320L0,320Z"></path></svg>